<svg width="1600" height="900" viewBox="0 0 1600 900" fill="none" xmlns="http://www.w3.org/2000/svg">
  <defs>
    <linearGradient id="bg" x1="0" y1="0" x2="1600" y2="900" gradientUnits="userSpaceOnUse">
      <stop stop-color="#0A1525"/>
      <stop offset="1" stop-color="#17354A"/>
    </linearGradient>
  </defs>
  <rect width="1600" height="900" rx="32" fill="url(#bg)"/>
  <rect x="70" y="70" width="1460" height="760" rx="28" fill="#0B1727" stroke="#31516E"/>
  <text x="120" y="156" fill="#F3F8FF" font-size="42" font-family="Arial, Helvetica, sans-serif" font-weight="700">Inbox placeholder</text>
  <text x="120" y="202" fill="#9EC2E0" font-size="22" font-family="Arial, Helvetica, sans-serif">Replace with the real priority feed: incidents, approvals, and recommendations.</text>
  <rect x="120" y="248" width="360" height="112" rx="22" fill="#123149"/>
  <rect x="500" y="248" width="360" height="112" rx="22" fill="#123149"/>
  <rect x="880" y="248" width="260" height="112" rx="22" fill="#123149"/>
  <rect x="1160" y="248" width="250" height="112" rx="22" fill="#123149"/>
  <text x="152" y="298" fill="#A4C7E4" font-size="20" font-family="Arial, Helvetica, sans-serif">Critical incidents</text>
  <text x="152" y="338" fill="#F8FBFF" font-size="40" font-family="Arial, Helvetica, sans-serif" font-weight="700">2</text>
  <text x="532" y="298" fill="#A4C7E4" font-size="20" font-family="Arial, Helvetica, sans-serif">Awaiting approval</text>
  <text x="532" y="338" fill="#F8FBFF" font-size="40" font-family="Arial, Helvetica, sans-serif" font-weight="700">4</text>
  <text x="912" y="298" fill="#A4C7E4" font-size="20" font-family="Arial, Helvetica, sans-serif">Warnings</text>
  <text x="912" y="338" fill="#F8FBFF" font-size="40" font-family="Arial, Helvetica, sans-serif" font-weight="700">7</text>
  <text x="1192" y="298" fill="#A4C7E4" font-size="20" font-family="Arial, Helvetica, sans-serif">Resolved today</text>
  <text x="1192" y="338" fill="#F8FBFF" font-size="40" font-family="Arial, Helvetica, sans-serif" font-weight="700">11</text>
  <rect x="120" y="402" width="1290" height="110" rx="22" fill="#152B43"/>
  <rect x="120" y="532" width="1290" height="110" rx="22" fill="#152B43"/>
  <rect x="120" y="662" width="1290" height="110" rx="22" fill="#152B43"/>
  <circle cx="168" cy="456" r="12" fill="#EF4444"/>
  <circle cx="168" cy="586" r="12" fill="#F59E0B"/>
  <circle cx="168" cy="716" r="12" fill="#10B981"/>
  <text x="200" y="446" fill="#F7FBFF" font-size="28" font-family="Arial, Helvetica, sans-serif" font-weight="700">RAID set degraded on nas-01</text>
  <text x="200" y="480" fill="#B6D0E7" font-size="20" font-family="Arial, Helvetica, sans-serif">Drive 3 is reporting reallocated sectors. Replacement runbook ready.</text>
  <text x="200" y="576" fill="#F7FBFF" font-size="28" font-family="Arial, Helvetica, sans-serif" font-weight="700">gitlab.internal certificate expires soon</text>
  <text x="200" y="610" fill="#B6D0E7" font-size="20" font-family="Arial, Helvetica, sans-serif">Renewal can run automatically after DNS challenge approval.</text>
  <text x="200" y="706" fill="#F7FBFF" font-size="28" font-family="Arial, Helvetica, sans-serif" font-weight="700">Backup retry completed successfully</text>
  <text x="200" y="740" fill="#B6D0E7" font-size="20" font-family="Arial, Helvetica, sans-serif">Verification passed and the incident was closed with evidence attached.</text>
</svg>
